<?xml version="1.0" standalone="no"?><!DOCTYPE svg PUBLIC "-//W3C//DTD SVG 1.1//EN" "http://www.w3.org/Graphics/SVG/1.1/DTD/svg11.dtd"><svg t="1604999835071" class="icon" viewBox="0 0 1024 1024" version="1.1" xmlns="http://www.w3.org/2000/svg" p-id="2317" xmlns:xlink="http://www.w3.org/1999/xlink" width="200" height="200"><defs><style type="text/css"></style></defs><path d="M126.865448 425.855785a8.176954 8.176954 0 0 1-7.032181-8.176954V142.524315c0-30.581809 21.096542-55.439751 47.099257-55.439751h67.786952a8.176954 8.176954 0 0 1 7.032181 8.176955 8.176954 8.176954 0 0 1-7.032181 8.176954h-67.868721c-18.234608 0-32.707818 17.416913-32.707818 38.840534v275.318054a8.176954 8.176954 0 0 1-7.277489 8.258724z" fill="#69494D" p-id="2318"></path><path d="M448.792142 508.688333l36.060369-92.726662c6.132716-21.668929 43.09255-30.254731 67.459874-30.254732l181.11954 0.981235c24.530863 0 51.351274 15.127366 57.238681 36.796295l37.368682 86.185099h68.849956V123.390242H328.509143v385.62517z" fill="#F7B466" p-id="2319"></path><path d="M750.52176 225.029785H375.363092a8.176954 8.176954 0 0 1 0-16.353909h375.158668a8.176954 8.176954 0 0 1 0 16.353909z" fill="#69494D" p-id="2320"></path><path d="M413.713008 519.154835z m449.160105-7.277489h27.311028V49.061726c0-17.743991-12.265432-32.2172-27.311028-32.2172H269.062685C254.017089 16.353909 241.751657 30.990657 241.751657 49.061726v462.243233l-6.623333 0.490617-5.233251-0.572387h-2.044239V49.061726c0-26.90218 18.561686-49.061726 41.37539-49.061726h593.56512c22.813703 0 41.375389 21.832468 41.375389 49.061726v454.965743a8.176954 8.176954 0 0 1-7.032181 8.176955h-39.41292A7.19572 7.19572 0 0 1 851.343608 506.971173" fill="#69494D" p-id="2321"></path><path d="M929.351753 1024H94.648247c-42.683702 0-77.353989-29.109958-77.353988-64.925018V572.386808c0-36.142138 34.670287-65.415635 77.353988-65.415635l354.143895-0.654156 36.060369-90.437116c7.11395-17.825761 31.154196-30.254731 58.546994-30.254731l190.11419 0.654156c27.311028 0 51.433043 12.428971 58.546993 30.254731L828.039288 506.971173h101.312465c42.683702 0 77.353989 29.273497 77.353988 65.415635v387.097022c0 35.406213-34.670287 64.51617-77.353988 64.51617zM543.317735 397.481754c-21.341851 0-39.985307 9.158189-45.136788 22.241316l-37.61399 94.443823a7.032181 7.032181 0 0 1-6.623333 4.006708l-359.213607 0.654156c-34.915595 0-63.289627 23.794937-63.289627 53.068434v387.097021c0 29.273497 28.374032 53.068434 63.289627 53.068435h834.621736c34.915595 0 63.289627-23.794937 63.289627-53.068435V572.386808c0-29.273497-28.374032-53.068434-63.289627-53.068434h-106.300407a7.032181 7.032181 0 0 1-6.705103-4.006707l-37.69576-94.852672c-5.233251-13.083127-23.794937-22.241316-45.218558-22.241316z" fill="#69494D" p-id="2322"></path><path d="M641.686497 856.127126a6.050946 6.050946 0 0 1-4.415556-1.880699L491.557614 702.155075a6.623333 6.623333 0 0 1 0-9.158189 6.050946 6.050946 0 0 1 8.749341 0l141.78839 147.185179 142.442545-148.248183a6.050946 6.050946 0 0 1 8.749341 0 6.623333 6.623333 0 0 1 0 9.158189l-147.185179 153.236125a6.050946 6.050946 0 0 1-4.415555 1.79893z" fill="#69494D" p-id="2323"></path><path d="M642.258884 856.127126a6.296255 6.296255 0 0 1-6.214486-6.459794V521.444382a6.214485 6.214485 0 1 1 12.428971 0v328.22295a6.296255 6.296255 0 0 1-6.214485 6.459794z" fill="#69494D" p-id="2324"></path></svg>