<?xml version="1.0" standalone="no"?><!DOCTYPE svg PUBLIC "-//W3C//DTD SVG 1.1//EN" "http://www.w3.org/Graphics/SVG/1.1/DTD/svg11.dtd"><svg t="1601948548193" class="icon" viewBox="0 0 1024 1024" version="1.1" xmlns="http://www.w3.org/2000/svg" p-id="1137" xmlns:xlink="http://www.w3.org/1999/xlink" width="200" height="200"><defs><style type="text/css"></style></defs><path d="M650.399603 605.468444v-26.204298l42.743117-42.765642V398.77057h-36.527109V351.031916l-74.265474-74.281856H441.636553l-74.295167 74.275713v47.744797h-36.50356v137.734077l42.762571 42.765643v26.588254l-97.529173 26.910778v110.623642h472.395092V631.41165l-98.066713-25.943206z m41.836979 89.9258H332.298911v-28.583807l92.4978-26.686547v-80.505031l-40.556098-42.407283v-71.461052h34.620635v-74.318716l44.658806-46.683028h96.969107l44.637305 46.683028v74.318716h34.642136v71.461052l-40.537668 42.407283v80.505031l93.005648 25.726143v29.544211z" fill="" p-id="1138"></path><path d="M927.282768 355.384453V95.837714h-831.394883v833.002384h831.394883V668.853088h-63.266898v195.696226H668.319644v63.487034H354.851009v-63.487034H159.154783V668.853088h-63.266898V355.384453h63.266898V160.712112H354.851009V96.641464h313.468635v64.070648h195.696226v194.672341z" fill="" p-id="1139"></path></svg>